name Walk1.mot
datacolumns 19
datarows 22
range 1.74200000 1.76300000
endheader

                time	   L_ground_force_vx	   L_ground_force_vy	   L_ground_force_vz	   L_ground_force_px	   L_ground_force_py	   L_ground_force_pz	   R_ground_force_vx	   R_ground_force_vy	   R_ground_force_vz	   R_ground_force_px	   R_ground_force_py	   R_ground_force_pz	   L_ground_torque_x	   L_ground_torque_y	   L_ground_torque_z	   R_ground_torque_x	   R_ground_torque_y	   R_ground_torque_z	
          1.74200000	         10.01074897	        987.18207006	         60.79709201	         -0.25927410	          0.00000000	         -0.03792951	          0.00000000	          0.00000000	          0.00000000	          0.00000000	          0.00000000	          0.00000000	          0.00000000	         -1.11207905	          0.00000000	          0.00000000	          0.00000000	          0.00000000	
          1.74300000	         10.24183692	        988.22645859	         60.93806629	         -0.25882192	          0.00000000	         -0.03799329	          0.00000000	          0.00000000	          0.00000000	          0.00000000	          0.00000000	          0.00000000	          0.00000000	         -1.08650509	          0.00000000	          0.00000000	          0.00000000	          0.00000000	
          1.74400000	         10.48858138	        989.18374172	         61.09482949	         -0.25837933	          0.00000000	         -0.03807502	          0.00000000	          0.00000000	          0.00000000	          0.00000000	          0.00000000	          0.00000000	          0.00000000	         -1.06487630	          0.00000000	          0.00000000	          0.00000000	          0.00000000	
          1.74500000	         10.74052034	        990.06886045	         61.28561501	         -0.25796842	          0.00000000	         -0.03817520	          0.00000000	          0.00000000	          0.00000000	          0.00000000	          0.00000000	          0.00000000	          0.00000000	         -1.04746302	          0.00000000	          0.00000000	          0.00000000	          0.00000000	
          1.74600000	         10.99251978	        990.92638611	         61.51009368	         -0.25760538	          0.00000000	         -0.03828119	          0.00000000	          0.00000000	          0.00000000	          0.00000000	          0.00000000	          0.00000000	          0.00000000	         -1.03208347	          0.00000000	          0.00000000	          0.00000000	          0.00000000	
          1.74700000	         11.24794208	        991.80730722	         61.75163657	         -0.25728824	          0.00000000	         -0.03837431	          0.00000000	          0.00000000	          0.00000000	          0.00000000	          0.00000000	          0.00000000	          0.00000000	         -1.01948796	          0.00000000	          0.00000000	          0.00000000	          0.00000000	
          1.74800000	         11.51561429	        992.72658913	         61.99077086	         -0.25699084	          0.00000000	         -0.03844205	          0.00000000	          0.00000000	          0.00000000	          0.00000000	          0.00000000	          0.00000000	          0.00000000	         -1.01332052	          0.00000000	          0.00000000	          0.00000000	          0.00000000	
          1.74900000	         11.80480419	        993.65202968	         62.21587721	         -0.25667395	          0.00000000	         -0.03848638	          0.00000000	          0.00000000	          0.00000000	          0.00000000	          0.00000000	          0.00000000	          0.00000000	         -1.01551690	          0.00000000	          0.00000000	          0.00000000	          0.00000000	
          1.75000000	         12.12253061	        994.55499634	         62.42958233	         -0.25631298	          0.00000000	         -0.03852235	          0.00000000	          0.00000000	          0.00000000	          0.00000000	          0.00000000	          0.00000000	          0.00000000	         -1.02314675	          0.00000000	          0.00000000	          0.00000000	          0.00000000	
          1.75100000	         12.47498419	        995.43100252	         62.64515620	         -0.25591091	          0.00000000	         -0.03856440	          0.00000000	          0.00000000	          0.00000000	          0.00000000	          0.00000000	          0.00000000	          0.00000000	         -1.02829971	          0.00000000	          0.00000000	          0.00000000	          0.00000000	
          1.75200000	         12.86262818	        996.26460198	         62.87097480	         -0.25548702	          0.00000000	         -0.03861364	          0.00000000	          0.00000000	          0.00000000	          0.00000000	          0.00000000	          0.00000000	          0.00000000	         -1.02374448	          0.00000000	          0.00000000	          0.00000000	          0.00000000	
          1.75300000	         13.27149295	        997.04270832	         63.10450396	         -0.25506357	          0.00000000	         -0.03865931	          0.00000000	          0.00000000	          0.00000000	          0.00000000	          0.00000000	          0.00000000	          0.00000000	         -1.01022784	          0.00000000	          0.00000000	          0.00000000	          0.00000000	
          1.75400000	         13.67857782	        997.80481377	         63.34337923	         -0.25465614	          0.00000000	         -0.03869125	          0.00000000	          0.00000000	          0.00000000	          0.00000000	          0.00000000	          0.00000000	          0.00000000	         -0.99460214	          0.00000000	          0.00000000	          0.00000000	          0.00000000	
          1.75500000	         14.06790730	        998.61382219	         63.58972858	         -0.25426769	          0.00000000	         -0.03871169	          0.00000000	          0.00000000	          0.00000000	          0.00000000	          0.00000000	          0.00000000	          0.00000000	         -0.98279958	          0.00000000	          0.00000000	          0.00000000	          0.00000000	
          1.75600000	         14.44084156	        999.48493710	         63.84149439	         -0.25389306	          0.00000000	         -0.03873249	          0.00000000	          0.00000000	          0.00000000	          0.00000000	          0.00000000	          0.00000000	          0.00000000	         -0.97684140	          0.00000000	          0.00000000	          0.00000000	          0.00000000	
          1.75700000	         14.81212241	       1000.38630322	         64.09043101	         -0.25352628	          0.00000000	         -0.03876123	          0.00000000	          0.00000000	          0.00000000	          0.00000000	          0.00000000	          0.00000000	          0.00000000	         -0.97490197	          0.00000000	          0.00000000	          0.00000000	          0.00000000	
          1.75800000	         15.19539006	       1001.28600440	         64.33135434	         -0.25316439	          0.00000000	         -0.03879495	          0.00000000	          0.00000000	          0.00000000	          0.00000000	          0.00000000	          0.00000000	          0.00000000	         -0.97277500	          0.00000000	          0.00000000	          0.00000000	          0.00000000	
          1.75900000	         15.59543547	       1002.17194727	         64.56758399	         -0.25281128	          0.00000000	         -0.03882636	          0.00000000	          0.00000000	          0.00000000	          0.00000000	          0.00000000	          0.00000000	          0.00000000	         -0.96673344	          0.00000000	          0.00000000	          0.00000000	          0.00000000	
          1.76000000	         16.01226623	       1003.03543399	         64.80404195	         -0.25247612	          0.00000000	         -0.03885103	          0.00000000	          0.00000000	          0.00000000	          0.00000000	          0.00000000	          0.00000000	          0.00000000	         -0.95592122	          0.00000000	          0.00000000	          0.00000000	          0.00000000	
          1.76100000	         16.44490199	       1003.85250369	         65.03924366	         -0.25216209	          0.00000000	         -0.03886850	          0.00000000	          0.00000000	          0.00000000	          0.00000000	          0.00000000	          0.00000000	          0.00000000	         -0.94313458	          0.00000000	          0.00000000	          0.00000000	          0.00000000	
          1.76200000	         16.89365700	       1004.60020816	         65.26768103	         -0.25185832	          0.00000000	         -0.03888018	          0.00000000	          0.00000000	          0.00000000	          0.00000000	          0.00000000	          0.00000000	          0.00000000	         -0.93357236	          0.00000000	          0.00000000	          0.00000000	          0.00000000	
          1.76300000	         17.36269427	       1005.29318257	         65.48457560	         -0.25154743	          0.00000000	         -0.03888770	          0.00000000	          0.00000000	          0.00000000	          0.00000000	          0.00000000	          0.00000000	          0.00000000	         -0.93169437	          0.00000000	          0.00000000	          0.00000000	          0.00000000	
